<?xml version="1.0" encoding="UTF-8"?>
<svg width="21px" height="25px" viewBox="0 0 21 25" version="1.1" xmlns="http://www.w3.org/2000/svg" xmlns:xlink="http://www.w3.org/1999/xlink">
    <!-- Generator: Sketch 54.1 (76490) - https://sketchapp.com -->
    <title>Untitled</title>
    <desc>Created with Sketch.</desc>
    <g id="Page-1" stroke="none" stroke-width="1" fill="none" fill-rule="evenodd">
        <g id="header_cart_white" fill="#FFFFFF" fill-rule="nonzero">
            <path d="M18.8,24.8 L1.3,24.8 C0.6,24.8 0,24.2 0,23.5 L0,6 C0,5.3 0.6,4.7 1.3,4.7 L18.8,4.7 C19.5,4.7 20.1,5.3 20.1,6 L20.1,23.5 C20.1,24.2 19.5,24.8 18.8,24.8 Z M2,22.8 L18,22.8 L18,6.8 L2,6.8 C2,6.8 2,22.8 2,22.8 Z" id="Shape"></path>
            <path d="M15.4,5.2 L13.4,5.2 C13.4,3.4 11.9,2 10.1,2 C8.3,2 6.8,3.5 6.8,5.3 L4.8,5.3 C4.8,2.4 7.2,0 10.1,0 C13,0 15.4,2.3 15.4,5.2 Z" id="Path"></path>
        </g>
    </g>
</svg>